<svg width="1440" height="892" viewBox="0 0 1440 892" fill="none" xmlns="http://www.w3.org/2000/svg">
<rect width="1440" height="892" fill="#D5FAFC"/>
<g opacity="0.3" clip-path="url(#clip0_5_406)">
<path fill-rule="evenodd" clip-rule="evenodd" d="M253.377 82.1171C232.202 92.1823 221.615 104.009 221.615 117.597C230.64 118.603 238.103 122.168 244.005 128.291C249.906 134.414 252.857 141.501 252.857 149.553C252.857 158.108 249.993 165.322 244.265 171.193C238.537 177.064 231.334 180 222.656 180C212.936 180 204.519 176.184 197.402 168.551C190.286 160.918 186.728 151.65 186.728 140.746C186.728 108.035 205.646 82.4527 243.484 64L253.377 82.1171ZM178.649 82.1171C157.301 92.1823 146.626 104.009 146.626 117.597C155.825 118.603 163.375 122.168 169.277 128.291C175.178 134.414 178.129 141.501 178.129 149.553C178.129 158.108 175.221 165.322 169.407 171.193C163.592 177.064 156.346 180 147.668 180C137.948 180 129.574 176.184 122.544 168.551C115.515 160.918 112 151.65 112 140.746C112 108.035 130.832 82.4527 168.496 64L178.649 82.1171Z" fill="#1DB5BE"/>
</g>
<g clip-path="url(#clip1_5_406)">
<path d="M219.034 167V132.091H232.807C235.443 132.091 237.693 132.562 239.557 133.506C241.432 134.437 242.858 135.761 243.835 137.477C244.824 139.182 245.318 141.187 245.318 143.494C245.318 145.812 244.818 147.807 243.818 149.477C242.818 151.136 241.369 152.409 239.472 153.295C237.585 154.182 235.301 154.625 232.619 154.625H223.398V148.693H231.426C232.835 148.693 234.006 148.5 234.938 148.114C235.869 147.727 236.563 147.148 237.017 146.375C237.483 145.602 237.716 144.642 237.716 143.494C237.716 142.335 237.483 141.358 237.017 140.562C236.563 139.767 235.864 139.165 234.92 138.756C233.989 138.335 232.813 138.125 231.392 138.125H226.415V167H219.034ZM237.886 151.114L246.562 167H238.415L229.926 151.114H237.886ZM260.708 167.511C258.014 167.511 255.696 166.966 253.753 165.875C251.821 164.773 250.333 163.216 249.287 161.205C248.242 159.182 247.719 156.79 247.719 154.028C247.719 151.335 248.242 148.972 249.287 146.938C250.333 144.903 251.804 143.318 253.702 142.182C255.611 141.045 257.85 140.477 260.418 140.477C262.145 140.477 263.753 140.756 265.242 141.312C266.742 141.858 268.049 142.682 269.162 143.784C270.287 144.886 271.162 146.273 271.787 147.943C272.412 149.602 272.725 151.545 272.725 153.773V155.767H250.617V151.267H265.889C265.889 150.222 265.662 149.295 265.208 148.489C264.753 147.682 264.122 147.051 263.316 146.597C262.52 146.131 261.594 145.898 260.537 145.898C259.435 145.898 258.458 146.153 257.605 146.665C256.764 147.165 256.105 147.841 255.628 148.693C255.151 149.534 254.907 150.472 254.895 151.506V155.784C254.895 157.08 255.134 158.199 255.611 159.142C256.1 160.085 256.787 160.812 257.674 161.324C258.56 161.835 259.611 162.091 260.827 162.091C261.634 162.091 262.372 161.977 263.043 161.75C263.713 161.523 264.287 161.182 264.764 160.727C265.242 160.273 265.605 159.716 265.855 159.057L272.571 159.5C272.23 161.114 271.532 162.523 270.475 163.727C269.429 164.92 268.077 165.852 266.418 166.523C264.77 167.182 262.867 167.511 260.708 167.511ZM283.729 167.494C282.059 167.494 280.57 167.205 279.263 166.625C277.957 166.034 276.922 165.165 276.161 164.017C275.411 162.858 275.036 161.415 275.036 159.688C275.036 158.233 275.303 157.011 275.837 156.023C276.371 155.034 277.099 154.239 278.019 153.636C278.939 153.034 279.985 152.58 281.155 152.273C282.337 151.966 283.576 151.75 284.871 151.625C286.394 151.466 287.621 151.318 288.553 151.182C289.485 151.034 290.161 150.818 290.582 150.534C291.002 150.25 291.212 149.83 291.212 149.273V149.17C291.212 148.091 290.871 147.256 290.189 146.665C289.519 146.074 288.564 145.778 287.326 145.778C286.019 145.778 284.979 146.068 284.207 146.648C283.434 147.216 282.922 147.932 282.672 148.795L275.957 148.25C276.297 146.659 276.968 145.284 277.968 144.125C278.968 142.955 280.258 142.057 281.837 141.432C283.428 140.795 285.269 140.477 287.36 140.477C288.814 140.477 290.207 140.648 291.536 140.989C292.877 141.33 294.064 141.858 295.099 142.574C296.144 143.29 296.968 144.21 297.57 145.335C298.172 146.449 298.474 147.784 298.474 149.341V167H291.587V163.369H291.383C290.962 164.188 290.4 164.909 289.695 165.534C288.991 166.148 288.144 166.631 287.155 166.983C286.167 167.324 285.025 167.494 283.729 167.494ZM285.809 162.483C286.877 162.483 287.82 162.273 288.638 161.852C289.457 161.42 290.099 160.841 290.564 160.114C291.03 159.386 291.263 158.562 291.263 157.642V154.864C291.036 155.011 290.724 155.148 290.326 155.273C289.939 155.386 289.502 155.494 289.013 155.597C288.525 155.687 288.036 155.773 287.547 155.852C287.059 155.92 286.616 155.983 286.218 156.04C285.366 156.165 284.621 156.364 283.985 156.636C283.349 156.909 282.854 157.278 282.502 157.744C282.15 158.199 281.974 158.767 281.974 159.449C281.974 160.438 282.332 161.193 283.047 161.716C283.775 162.227 284.695 162.483 285.809 162.483ZM310.168 132.091V167H302.907V132.091H310.168ZM343.768 142.131C343.632 140.756 343.047 139.687 342.013 138.926C340.979 138.165 339.575 137.784 337.803 137.784C336.598 137.784 335.581 137.955 334.751 138.295C333.922 138.625 333.286 139.085 332.842 139.676C332.411 140.267 332.195 140.938 332.195 141.688C332.172 142.312 332.303 142.858 332.587 143.324C332.882 143.79 333.286 144.193 333.797 144.534C334.308 144.864 334.899 145.153 335.57 145.403C336.24 145.642 336.956 145.847 337.717 146.017L340.854 146.767C342.376 147.108 343.774 147.562 345.047 148.131C346.32 148.699 347.422 149.398 348.354 150.227C349.286 151.057 350.007 152.034 350.518 153.159C351.041 154.284 351.308 155.574 351.32 157.028C351.308 159.165 350.763 161.017 349.683 162.585C348.615 164.142 347.07 165.352 345.047 166.216C343.036 167.068 340.609 167.494 337.768 167.494C334.95 167.494 332.496 167.062 330.405 166.199C328.325 165.335 326.7 164.057 325.53 162.364C324.371 160.659 323.763 158.551 323.706 156.04H330.848C330.928 157.21 331.263 158.187 331.854 158.972C332.456 159.744 333.257 160.33 334.257 160.727C335.268 161.114 336.411 161.307 337.683 161.307C338.933 161.307 340.018 161.125 340.939 160.761C341.871 160.398 342.592 159.892 343.104 159.244C343.615 158.597 343.871 157.852 343.871 157.011C343.871 156.227 343.638 155.568 343.172 155.034C342.717 154.5 342.047 154.045 341.161 153.67C340.286 153.295 339.212 152.955 337.939 152.648L334.138 151.693C331.195 150.977 328.871 149.858 327.166 148.335C325.462 146.812 324.615 144.761 324.626 142.182C324.615 140.068 325.178 138.222 326.314 136.642C327.462 135.062 329.036 133.83 331.036 132.943C333.036 132.057 335.308 131.614 337.854 131.614C340.445 131.614 342.706 132.057 344.638 132.943C346.581 133.83 348.092 135.062 349.172 136.642C350.251 138.222 350.808 140.051 350.842 142.131H343.768ZM368.874 140.818V146.273H353.107V140.818H368.874ZM356.686 134.545H363.948V158.955C363.948 159.625 364.05 160.148 364.255 160.523C364.459 160.886 364.743 161.142 365.107 161.29C365.482 161.437 365.914 161.511 366.402 161.511C366.743 161.511 367.084 161.483 367.425 161.426C367.766 161.358 368.027 161.307 368.209 161.273L369.351 166.676C368.988 166.79 368.476 166.92 367.817 167.068C367.158 167.227 366.357 167.324 365.414 167.358C363.664 167.426 362.13 167.193 360.811 166.659C359.505 166.125 358.488 165.295 357.76 164.17C357.033 163.045 356.675 161.625 356.686 159.909V134.545ZM383.952 167.511C381.305 167.511 379.015 166.949 377.083 165.824C375.163 164.687 373.68 163.108 372.634 161.085C371.589 159.051 371.066 156.693 371.066 154.011C371.066 151.307 371.589 148.943 372.634 146.92C373.68 144.886 375.163 143.307 377.083 142.182C379.015 141.045 381.305 140.477 383.952 140.477C386.6 140.477 388.884 141.045 390.805 142.182C392.736 143.307 394.225 144.886 395.27 146.92C396.316 148.943 396.839 151.307 396.839 154.011C396.839 156.693 396.316 159.051 395.27 161.085C394.225 163.108 392.736 164.687 390.805 165.824C388.884 166.949 386.6 167.511 383.952 167.511ZM383.986 161.886C385.191 161.886 386.197 161.545 387.003 160.864C387.81 160.17 388.418 159.227 388.827 158.034C389.248 156.841 389.458 155.483 389.458 153.96C389.458 152.438 389.248 151.08 388.827 149.886C388.418 148.693 387.81 147.75 387.003 147.057C386.197 146.364 385.191 146.017 383.986 146.017C382.77 146.017 381.748 146.364 380.918 147.057C380.1 147.75 379.481 148.693 379.06 149.886C378.651 151.08 378.447 152.438 378.447 153.96C378.447 155.483 378.651 156.841 379.06 158.034C379.481 159.227 380.1 160.17 380.918 160.864C381.748 161.545 382.77 161.886 383.986 161.886ZM400.36 167V140.818H407.4V145.386H407.673C408.15 143.761 408.951 142.534 410.076 141.705C411.201 140.864 412.497 140.443 413.962 140.443C414.326 140.443 414.718 140.466 415.139 140.511C415.559 140.557 415.928 140.619 416.247 140.699V147.142C415.906 147.04 415.434 146.949 414.832 146.869C414.23 146.79 413.678 146.75 413.178 146.75C412.11 146.75 411.156 146.983 410.315 147.449C409.485 147.903 408.826 148.54 408.337 149.358C407.86 150.176 407.622 151.119 407.622 152.188V167H400.36ZM418.801 167V140.818H426.062V167H418.801ZM422.449 137.443C421.369 137.443 420.443 137.085 419.67 136.369C418.909 135.642 418.528 134.773 418.528 133.761C418.528 132.761 418.909 131.903 419.67 131.188C420.443 130.46 421.369 130.097 422.449 130.097C423.528 130.097 424.449 130.46 425.21 131.188C425.983 131.903 426.369 132.761 426.369 133.761C426.369 134.773 425.983 135.642 425.21 136.369C424.449 137.085 423.528 137.443 422.449 137.443ZM442.611 167.511C439.918 167.511 437.599 166.966 435.656 165.875C433.724 164.773 432.236 163.216 431.19 161.205C430.145 159.182 429.622 156.79 429.622 154.028C429.622 151.335 430.145 148.972 431.19 146.938C432.236 144.903 433.707 143.318 435.605 142.182C437.514 141.045 439.753 140.477 442.321 140.477C444.048 140.477 445.656 140.756 447.145 141.312C448.645 141.858 449.952 142.682 451.065 143.784C452.19 144.886 453.065 146.273 453.69 147.943C454.315 149.602 454.628 151.545 454.628 153.773V155.767H432.52V151.267H447.793C447.793 150.222 447.565 149.295 447.111 148.489C446.656 147.682 446.026 147.051 445.219 146.597C444.423 146.131 443.497 145.898 442.44 145.898C441.338 145.898 440.361 146.153 439.509 146.665C438.668 147.165 438.009 147.841 437.531 148.693C437.054 149.534 436.81 150.472 436.798 151.506V155.784C436.798 157.08 437.037 158.199 437.514 159.142C438.003 160.085 438.69 160.812 439.577 161.324C440.463 161.835 441.514 162.091 442.73 162.091C443.537 162.091 444.276 161.977 444.946 161.75C445.616 161.523 446.19 161.182 446.668 160.727C447.145 160.273 447.509 159.716 447.759 159.057L454.474 159.5C454.134 161.114 453.435 162.523 452.378 163.727C451.332 164.92 449.98 165.852 448.321 166.523C446.673 167.182 444.77 167.511 442.611 167.511ZM479.951 148.284L473.303 148.693C473.189 148.125 472.945 147.614 472.57 147.159C472.195 146.693 471.701 146.324 471.087 146.051C470.485 145.767 469.763 145.625 468.922 145.625C467.797 145.625 466.848 145.864 466.076 146.341C465.303 146.807 464.916 147.432 464.916 148.216C464.916 148.841 465.166 149.369 465.666 149.801C466.166 150.233 467.024 150.58 468.24 150.841L472.979 151.795C475.524 152.318 477.422 153.159 478.672 154.318C479.922 155.477 480.547 157 480.547 158.886C480.547 160.602 480.041 162.108 479.03 163.403C478.03 164.699 476.655 165.71 474.905 166.438C473.166 167.153 471.161 167.511 468.888 167.511C465.422 167.511 462.661 166.79 460.604 165.347C458.559 163.892 457.36 161.915 457.007 159.415L464.149 159.04C464.365 160.097 464.888 160.903 465.718 161.46C466.547 162.006 467.61 162.278 468.905 162.278C470.178 162.278 471.201 162.034 471.973 161.545C472.757 161.045 473.155 160.403 473.166 159.619C473.155 158.96 472.877 158.42 472.331 158C471.786 157.568 470.945 157.239 469.809 157.011L465.274 156.108C462.718 155.597 460.814 154.71 459.564 153.449C458.326 152.187 457.706 150.58 457.706 148.625C457.706 146.943 458.161 145.494 459.07 144.278C459.99 143.062 461.28 142.125 462.939 141.466C464.61 140.807 466.564 140.477 468.803 140.477C472.11 140.477 474.712 141.176 476.61 142.574C478.519 143.972 479.632 145.875 479.951 148.284ZM507.909 140.818V146.273H491.749V140.818H507.909ZM495.448 167V138.926C495.448 137.028 495.818 135.455 496.556 134.205C497.306 132.955 498.329 132.017 499.624 131.392C500.92 130.767 502.391 130.455 504.039 130.455C505.153 130.455 506.17 130.54 507.09 130.71C508.022 130.881 508.715 131.034 509.17 131.17L507.874 136.625C507.59 136.534 507.238 136.449 506.818 136.369C506.409 136.29 505.988 136.25 505.556 136.25C504.488 136.25 503.744 136.5 503.323 137C502.903 137.489 502.693 138.176 502.693 139.062V167H495.448ZM511.145 167V140.818H518.184V145.386H518.457C518.934 143.761 519.736 142.534 520.861 141.705C521.986 140.864 523.281 140.443 524.747 140.443C525.111 140.443 525.503 140.466 525.923 140.511C526.343 140.557 526.713 140.619 527.031 140.699V147.142C526.69 147.04 526.218 146.949 525.616 146.869C525.014 146.79 524.463 146.75 523.963 146.75C522.895 146.75 521.94 146.983 521.099 147.449C520.27 147.903 519.611 148.54 519.122 149.358C518.645 150.176 518.406 151.119 518.406 152.188V167H511.145ZM540.196 167.511C537.548 167.511 535.259 166.949 533.327 165.824C531.406 164.687 529.923 163.108 528.878 161.085C527.832 159.051 527.31 156.693 527.31 154.011C527.31 151.307 527.832 148.943 528.878 146.92C529.923 144.886 531.406 143.307 533.327 142.182C535.259 141.045 537.548 140.477 540.196 140.477C542.844 140.477 545.128 141.045 547.048 142.182C548.98 143.307 550.469 144.886 551.514 146.92C552.56 148.943 553.082 151.307 553.082 154.011C553.082 156.693 552.56 159.051 551.514 161.085C550.469 163.108 548.98 164.687 547.048 165.824C545.128 166.949 542.844 167.511 540.196 167.511ZM540.23 161.886C541.435 161.886 542.44 161.545 543.247 160.864C544.054 160.17 544.662 159.227 545.071 158.034C545.491 156.841 545.702 155.483 545.702 153.96C545.702 152.438 545.491 151.08 545.071 149.886C544.662 148.693 544.054 147.75 543.247 147.057C542.44 146.364 541.435 146.017 540.23 146.017C539.014 146.017 537.991 146.364 537.162 147.057C536.344 147.75 535.724 148.693 535.304 149.886C534.895 151.08 534.69 152.438 534.69 153.96C534.69 155.483 534.895 156.841 535.304 158.034C535.724 159.227 536.344 160.17 537.162 160.864C537.991 161.545 539.014 161.886 540.23 161.886ZM556.604 167V140.818H563.524V145.438H563.831C564.377 143.903 565.286 142.693 566.559 141.807C567.831 140.92 569.354 140.477 571.127 140.477C572.922 140.477 574.451 140.926 575.712 141.824C576.973 142.71 577.814 143.915 578.235 145.438H578.507C579.041 143.938 580.007 142.739 581.405 141.841C582.814 140.932 584.479 140.477 586.399 140.477C588.843 140.477 590.826 141.256 592.348 142.812C593.882 144.358 594.649 146.551 594.649 149.392V167H587.405V150.824C587.405 149.369 587.019 148.278 586.246 147.551C585.473 146.824 584.507 146.46 583.348 146.46C582.03 146.46 581.002 146.881 580.263 147.722C579.524 148.551 579.155 149.648 579.155 151.011V167H572.115V150.67C572.115 149.386 571.746 148.364 571.007 147.602C570.28 146.841 569.32 146.46 568.127 146.46C567.32 146.46 566.593 146.665 565.945 147.074C565.309 147.472 564.803 148.034 564.428 148.761C564.053 149.477 563.865 150.318 563.865 151.284V167H556.604ZM609.231 167V132.091H623.004C625.64 132.091 627.89 132.562 629.754 133.506C631.629 134.437 633.055 135.761 634.032 137.477C635.021 139.182 635.515 141.187 635.515 143.494C635.515 145.812 635.015 147.807 634.015 149.477C633.015 151.136 631.566 152.409 629.668 153.295C627.782 154.182 625.498 154.625 622.816 154.625H613.595V148.693H621.623C623.032 148.693 624.203 148.5 625.134 148.114C626.066 147.727 626.759 147.148 627.214 146.375C627.68 145.602 627.913 144.642 627.913 143.494C627.913 142.335 627.68 141.358 627.214 140.562C626.759 139.767 626.061 139.165 625.117 138.756C624.186 138.335 623.009 138.125 621.589 138.125H616.612V167H609.231ZM628.083 151.114L636.759 167H628.612L620.123 151.114H628.083ZM650.905 167.511C648.211 167.511 645.893 166.966 643.95 165.875C642.018 164.773 640.53 163.216 639.484 161.205C638.439 159.182 637.916 156.79 637.916 154.028C637.916 151.335 638.439 148.972 639.484 146.938C640.53 144.903 642.001 143.318 643.899 142.182C645.808 141.045 648.047 140.477 650.615 140.477C652.342 140.477 653.95 140.756 655.439 141.312C656.939 141.858 658.245 142.682 659.359 143.784C660.484 144.886 661.359 146.273 661.984 147.943C662.609 149.602 662.922 151.545 662.922 153.773V155.767H640.814V151.267H656.086C656.086 150.222 655.859 149.295 655.405 148.489C654.95 147.682 654.319 147.051 653.513 146.597C652.717 146.131 651.791 145.898 650.734 145.898C649.632 145.898 648.655 146.153 647.802 146.665C646.961 147.165 646.302 147.841 645.825 148.693C645.348 149.534 645.103 150.472 645.092 151.506V155.784C645.092 157.08 645.331 158.199 645.808 159.142C646.297 160.085 646.984 160.812 647.87 161.324C648.757 161.835 649.808 162.091 651.024 162.091C651.831 162.091 652.569 161.977 653.24 161.75C653.91 161.523 654.484 161.182 654.961 160.727C655.439 160.273 655.802 159.716 656.052 159.057L662.768 159.5C662.427 161.114 661.728 162.523 660.672 163.727C659.626 164.92 658.274 165.852 656.615 166.523C654.967 167.182 653.064 167.511 650.905 167.511ZM673.926 167.494C672.256 167.494 670.767 167.205 669.46 166.625C668.153 166.034 667.119 165.165 666.358 164.017C665.608 162.858 665.233 161.415 665.233 159.688C665.233 158.233 665.5 157.011 666.034 156.023C666.568 155.034 667.295 154.239 668.216 153.636C669.136 153.034 670.182 152.58 671.352 152.273C672.534 151.966 673.773 151.75 675.068 151.625C676.591 151.466 677.818 151.318 678.75 151.182C679.682 151.034 680.358 150.818 680.778 150.534C681.199 150.25 681.409 149.83 681.409 149.273V149.17C681.409 148.091 681.068 147.256 680.386 146.665C679.716 146.074 678.761 145.778 677.523 145.778C676.216 145.778 675.176 146.068 674.403 146.648C673.631 147.216 673.119 147.932 672.869 148.795L666.153 148.25C666.494 146.659 667.165 145.284 668.165 144.125C669.165 142.955 670.455 142.057 672.034 141.432C673.625 140.795 675.466 140.477 677.557 140.477C679.011 140.477 680.403 140.648 681.733 140.989C683.074 141.33 684.261 141.858 685.295 142.574C686.341 143.29 687.165 144.21 687.767 145.335C688.369 146.449 688.67 147.784 688.67 149.341V167H681.784V163.369H681.58C681.159 164.188 680.597 164.909 679.892 165.534C679.188 166.148 678.341 166.631 677.352 166.983C676.364 167.324 675.222 167.494 673.926 167.494ZM676.006 162.483C677.074 162.483 678.017 162.273 678.835 161.852C679.653 161.42 680.295 160.841 680.761 160.114C681.227 159.386 681.46 158.562 681.46 157.642V154.864C681.233 155.011 680.92 155.148 680.523 155.273C680.136 155.386 679.699 155.494 679.21 155.597C678.722 155.687 678.233 155.773 677.744 155.852C677.256 155.92 676.812 155.983 676.415 156.04C675.563 156.165 674.818 156.364 674.182 156.636C673.545 156.909 673.051 157.278 672.699 157.744C672.347 158.199 672.17 158.767 672.17 159.449C672.17 160.438 672.528 161.193 673.244 161.716C673.972 162.227 674.892 162.483 676.006 162.483ZM700.365 132.091V167H693.104V132.091H700.365ZM249.835 204.312H242.369C242.233 203.347 241.955 202.489 241.534 201.739C241.114 200.977 240.574 200.33 239.915 199.795C239.256 199.261 238.494 198.852 237.631 198.568C236.778 198.284 235.852 198.142 234.852 198.142C233.045 198.142 231.472 198.591 230.131 199.489C228.79 200.375 227.75 201.67 227.011 203.375C226.273 205.068 225.903 207.125 225.903 209.545C225.903 212.034 226.273 214.125 227.011 215.818C227.761 217.511 228.807 218.79 230.148 219.653C231.489 220.517 233.04 220.949 234.801 220.949C235.79 220.949 236.705 220.818 237.545 220.557C238.398 220.295 239.153 219.915 239.812 219.415C240.472 218.903 241.017 218.284 241.449 217.557C241.892 216.83 242.199 216 242.369 215.068L249.835 215.102C249.642 216.705 249.159 218.25 248.386 219.739C247.625 221.216 246.597 222.54 245.301 223.71C244.017 224.869 242.483 225.79 240.699 226.472C238.926 227.142 236.92 227.477 234.682 227.477C231.568 227.477 228.784 226.773 226.33 225.364C223.886 223.955 221.955 221.915 220.534 219.244C219.125 216.574 218.42 213.341 218.42 209.545C218.42 205.739 219.136 202.5 220.568 199.83C222 197.159 223.943 195.125 226.398 193.727C228.852 192.318 231.614 191.614 234.682 191.614C236.705 191.614 238.58 191.898 240.307 192.466C242.045 193.034 243.585 193.864 244.926 194.955C246.267 196.034 247.358 197.358 248.199 198.926C249.051 200.494 249.597 202.29 249.835 204.312ZM270.581 215.852V200.818H277.843V227H270.871V222.244H270.598C270.007 223.778 269.024 225.011 267.649 225.943C266.286 226.875 264.621 227.341 262.655 227.341C260.905 227.341 259.365 226.943 258.036 226.148C256.706 225.352 255.666 224.222 254.916 222.756C254.178 221.29 253.803 219.534 253.791 217.489V200.818H261.053V216.193C261.064 217.739 261.479 218.96 262.297 219.858C263.115 220.756 264.212 221.205 265.587 221.205C266.462 221.205 267.28 221.006 268.041 220.608C268.803 220.199 269.416 219.597 269.882 218.801C270.36 218.006 270.593 217.023 270.581 215.852ZM304.235 208.284L297.587 208.693C297.474 208.125 297.229 207.614 296.854 207.159C296.479 206.693 295.985 206.324 295.371 206.051C294.769 205.767 294.047 205.625 293.207 205.625C292.082 205.625 291.133 205.864 290.36 206.341C289.587 206.807 289.201 207.432 289.201 208.216C289.201 208.841 289.451 209.369 289.951 209.801C290.451 210.233 291.309 210.58 292.525 210.841L297.263 211.795C299.809 212.318 301.707 213.159 302.957 214.318C304.207 215.477 304.832 217 304.832 218.886C304.832 220.602 304.326 222.108 303.314 223.403C302.314 224.699 300.939 225.71 299.189 226.438C297.451 227.153 295.445 227.511 293.172 227.511C289.707 227.511 286.945 226.79 284.888 225.347C282.843 223.892 281.644 221.915 281.292 219.415L288.434 219.04C288.65 220.097 289.172 220.903 290.002 221.46C290.832 222.006 291.894 222.278 293.189 222.278C294.462 222.278 295.485 222.034 296.258 221.545C297.042 221.045 297.439 220.403 297.451 219.619C297.439 218.96 297.161 218.42 296.616 218C296.07 217.568 295.229 217.239 294.093 217.011L289.559 216.108C287.002 215.597 285.099 214.71 283.849 213.449C282.61 212.187 281.991 210.58 281.991 208.625C281.991 206.943 282.445 205.494 283.354 204.278C284.275 203.062 285.564 202.125 287.224 201.466C288.894 200.807 290.849 200.477 293.087 200.477C296.394 200.477 298.996 201.176 300.894 202.574C302.803 203.972 303.917 205.875 304.235 208.284ZM322.13 200.818V206.273H306.363V200.818H322.13ZM309.943 194.545H317.204V218.955C317.204 219.625 317.306 220.148 317.511 220.523C317.715 220.886 317.999 221.142 318.363 221.29C318.738 221.437 319.17 221.511 319.659 221.511C319.999 221.511 320.34 221.483 320.681 221.426C321.022 221.358 321.284 221.307 321.465 221.273L322.607 226.676C322.244 226.79 321.732 226.92 321.073 227.068C320.414 227.227 319.613 227.324 318.67 227.358C316.92 227.426 315.386 227.193 314.068 226.659C312.761 226.125 311.744 225.295 311.016 224.17C310.289 223.045 309.931 221.625 309.943 219.909V194.545ZM337.209 227.511C334.561 227.511 332.271 226.949 330.339 225.824C328.419 224.687 326.936 223.108 325.89 221.085C324.845 219.051 324.322 216.693 324.322 214.011C324.322 211.307 324.845 208.943 325.89 206.92C326.936 204.886 328.419 203.307 330.339 202.182C332.271 201.045 334.561 200.477 337.209 200.477C339.856 200.477 342.14 201.045 344.061 202.182C345.993 203.307 347.481 204.886 348.527 206.92C349.572 208.943 350.095 211.307 350.095 214.011C350.095 216.693 349.572 219.051 348.527 221.085C347.481 223.108 345.993 224.687 344.061 225.824C342.14 226.949 339.856 227.511 337.209 227.511ZM337.243 221.886C338.447 221.886 339.453 221.545 340.26 220.864C341.066 220.17 341.674 219.227 342.084 218.034C342.504 216.841 342.714 215.483 342.714 213.96C342.714 212.438 342.504 211.08 342.084 209.886C341.674 208.693 341.066 207.75 340.26 207.057C339.453 206.364 338.447 206.017 337.243 206.017C336.027 206.017 335.004 206.364 334.174 207.057C333.356 207.75 332.737 208.693 332.316 209.886C331.907 211.08 331.703 212.438 331.703 213.96C331.703 215.483 331.907 216.841 332.316 218.034C332.737 219.227 333.356 220.17 334.174 220.864C335.004 221.545 336.027 221.886 337.243 221.886ZM353.616 227V200.818H360.537V205.438H360.844C361.389 203.903 362.298 202.693 363.571 201.807C364.844 200.92 366.366 200.477 368.139 200.477C369.935 200.477 371.463 200.926 372.724 201.824C373.986 202.71 374.827 203.915 375.247 205.438H375.52C376.054 203.938 377.02 202.739 378.418 201.841C379.827 200.932 381.491 200.477 383.412 200.477C385.855 200.477 387.838 201.256 389.361 202.812C390.895 204.358 391.662 206.551 391.662 209.392V227H384.418V210.824C384.418 209.369 384.031 208.278 383.259 207.551C382.486 206.824 381.52 206.46 380.361 206.46C379.043 206.46 378.014 206.881 377.276 207.722C376.537 208.551 376.168 209.648 376.168 211.011V227H369.128V210.67C369.128 209.386 368.759 208.364 368.02 207.602C367.293 206.841 366.332 206.46 365.139 206.46C364.332 206.46 363.605 206.665 362.957 207.074C362.321 207.472 361.815 208.034 361.44 208.761C361.065 209.477 360.878 210.318 360.878 211.284V227H353.616ZM408.13 227.511C405.436 227.511 403.118 226.966 401.175 225.875C399.243 224.773 397.755 223.216 396.709 221.205C395.664 219.182 395.141 216.79 395.141 214.028C395.141 211.335 395.664 208.972 396.709 206.938C397.755 204.903 399.226 203.318 401.124 202.182C403.033 201.045 405.272 200.477 407.84 200.477C409.567 200.477 411.175 200.756 412.664 201.312C414.164 201.858 415.47 202.682 416.584 203.784C417.709 204.886 418.584 206.273 419.209 207.943C419.834 209.602 420.147 211.545 420.147 213.773V215.767H398.039V211.267H413.311C413.311 210.222 413.084 209.295 412.63 208.489C412.175 207.682 411.544 207.051 410.738 206.597C409.942 206.131 409.016 205.898 407.959 205.898C406.857 205.898 405.88 206.153 405.027 206.665C404.186 207.165 403.527 207.841 403.05 208.693C402.573 209.534 402.328 210.472 402.317 211.506V215.784C402.317 217.08 402.556 218.199 403.033 219.142C403.522 220.085 404.209 220.812 405.095 221.324C405.982 221.835 407.033 222.091 408.249 222.091C409.056 222.091 409.794 221.977 410.465 221.75C411.135 221.523 411.709 221.182 412.186 220.727C412.664 220.273 413.027 219.716 413.277 219.057L419.993 219.5C419.652 221.114 418.953 222.523 417.897 223.727C416.851 224.92 415.499 225.852 413.84 226.523C412.192 227.182 410.289 227.511 408.13 227.511ZM423.685 227V200.818H430.725V205.386H430.998C431.475 203.761 432.276 202.534 433.401 201.705C434.526 200.864 435.822 200.443 437.288 200.443C437.651 200.443 438.043 200.466 438.464 200.511C438.884 200.557 439.253 200.619 439.572 200.699V207.142C439.231 207.04 438.759 206.949 438.157 206.869C437.555 206.79 437.003 206.75 436.503 206.75C435.435 206.75 434.481 206.983 433.64 207.449C432.81 207.903 432.151 208.54 431.663 209.358C431.185 210.176 430.947 211.119 430.947 212.188V227H423.685ZM463.91 208.284L457.262 208.693C457.149 208.125 456.904 207.614 456.529 207.159C456.154 206.693 455.66 206.324 455.046 206.051C454.444 205.767 453.722 205.625 452.882 205.625C451.757 205.625 450.808 205.864 450.035 206.341C449.262 206.807 448.876 207.432 448.876 208.216C448.876 208.841 449.126 209.369 449.626 209.801C450.126 210.233 450.984 210.58 452.2 210.841L456.938 211.795C459.484 212.318 461.382 213.159 462.632 214.318C463.882 215.477 464.507 217 464.507 218.886C464.507 220.602 464.001 222.108 462.989 223.403C461.989 224.699 460.614 225.71 458.864 226.438C457.126 227.153 455.12 227.511 452.847 227.511C449.382 227.511 446.62 226.79 444.563 225.347C442.518 223.892 441.319 221.915 440.967 219.415L448.109 219.04C448.325 220.097 448.847 220.903 449.677 221.46C450.507 222.006 451.569 222.278 452.864 222.278C454.137 222.278 455.16 222.034 455.933 221.545C456.717 221.045 457.114 220.403 457.126 219.619C457.114 218.96 456.836 218.42 456.291 218C455.745 217.568 454.904 217.239 453.768 217.011L449.234 216.108C446.677 215.597 444.774 214.71 443.524 213.449C442.285 212.187 441.666 210.58 441.666 208.625C441.666 206.943 442.12 205.494 443.029 204.278C443.95 203.062 445.239 202.125 446.899 201.466C448.569 200.807 450.524 200.477 452.762 200.477C456.069 200.477 458.671 201.176 460.569 202.574C462.478 203.972 463.592 205.875 463.91 208.284Z" fill="#111827"/>
<path d="M226.534 260C226.393 259.57 226.208 259.184 225.978 258.843C225.752 258.498 225.482 258.204 225.166 257.961C224.855 257.718 224.501 257.533 224.105 257.405C223.709 257.277 223.274 257.213 222.801 257.213C222.026 257.213 221.32 257.413 220.685 257.814C220.05 258.214 219.545 258.805 219.17 259.585C218.795 260.364 218.608 261.321 218.608 262.455C218.608 263.588 218.798 264.545 219.177 265.325C219.556 266.104 220.07 266.695 220.717 267.095C221.365 267.496 222.094 267.696 222.903 267.696C223.653 267.696 224.314 267.536 224.885 267.217C225.46 266.893 225.908 266.437 226.227 265.849C226.551 265.256 226.713 264.56 226.713 263.759L227.199 263.861H223.261V262.455H228.247V263.861C228.247 264.939 228.017 265.876 227.557 266.673C227.101 267.47 226.47 268.088 225.665 268.527C224.864 268.962 223.943 269.179 222.903 269.179C221.744 269.179 220.726 268.906 219.848 268.361C218.974 267.815 218.293 267.04 217.803 266.034C217.317 265.028 217.074 263.835 217.074 262.455C217.074 261.419 217.212 260.488 217.489 259.661C217.771 258.83 218.167 258.123 218.678 257.539C219.19 256.955 219.795 256.508 220.494 256.197C221.192 255.886 221.962 255.73 222.801 255.73C223.491 255.73 224.135 255.835 224.732 256.043C225.332 256.248 225.867 256.54 226.336 256.919C226.809 257.294 227.203 257.744 227.518 258.268C227.834 258.788 228.051 259.365 228.17 260H226.534ZM234.874 269.205C233.928 269.205 233.112 268.996 232.426 268.578C231.744 268.156 231.218 267.568 230.847 266.814C230.481 266.055 230.297 265.173 230.297 264.168C230.297 263.162 230.481 262.276 230.847 261.509C231.218 260.737 231.733 260.136 232.394 259.706C233.059 259.271 233.834 259.054 234.721 259.054C235.232 259.054 235.737 259.139 236.236 259.31C236.734 259.48 237.188 259.757 237.597 260.141C238.006 260.52 238.332 261.023 238.575 261.649C238.818 262.276 238.939 263.047 238.939 263.963V264.602H231.371V263.298H237.405C237.405 262.744 237.295 262.25 237.073 261.815C236.856 261.381 236.545 261.038 236.14 260.786C235.739 260.535 235.266 260.409 234.721 260.409C234.12 260.409 233.6 260.558 233.161 260.857C232.726 261.151 232.392 261.534 232.157 262.007C231.923 262.48 231.806 262.987 231.806 263.528V264.398C231.806 265.139 231.934 265.768 232.189 266.283C232.449 266.795 232.809 267.185 233.27 267.453C233.73 267.717 234.265 267.849 234.874 267.849C235.27 267.849 235.628 267.794 235.948 267.683C236.272 267.568 236.551 267.398 236.785 267.172C237.02 266.942 237.201 266.656 237.329 266.315L238.786 266.724C238.633 267.219 238.375 267.653 238.013 268.028C237.65 268.399 237.203 268.689 236.67 268.898C236.138 269.102 235.539 269.205 234.874 269.205ZM245.504 259.182V260.46H240.416V259.182H245.504ZM241.899 256.83H243.407V266.188C243.407 266.614 243.469 266.933 243.593 267.146C243.721 267.355 243.883 267.496 244.079 267.568C244.279 267.636 244.49 267.67 244.711 267.67C244.878 267.67 245.014 267.662 245.121 267.645C245.227 267.624 245.312 267.607 245.376 267.594L245.683 268.949C245.581 268.987 245.438 269.026 245.255 269.064C245.072 269.107 244.839 269.128 244.558 269.128C244.132 269.128 243.714 269.036 243.305 268.853C242.9 268.67 242.564 268.391 242.295 268.016C242.031 267.641 241.899 267.168 241.899 266.597V256.83ZM252.836 269V259.182H254.344V269H252.836ZM253.603 257.545C253.309 257.545 253.055 257.445 252.842 257.245C252.633 257.045 252.529 256.804 252.529 256.523C252.529 256.241 252.633 256.001 252.842 255.8C253.055 255.6 253.309 255.5 253.603 255.5C253.897 255.5 254.148 255.6 254.357 255.8C254.57 256.001 254.677 256.241 254.677 256.523C254.677 256.804 254.57 257.045 254.357 257.245C254.148 257.445 253.897 257.545 253.603 257.545ZM258.616 263.094V269H257.107V259.182H258.565V260.716H258.692C258.923 260.217 259.272 259.817 259.741 259.514C260.21 259.207 260.815 259.054 261.556 259.054C262.221 259.054 262.803 259.19 263.301 259.463C263.8 259.732 264.188 260.141 264.464 260.69C264.741 261.236 264.88 261.926 264.88 262.761V269H263.371V262.864C263.371 262.092 263.171 261.491 262.771 261.061C262.37 260.626 261.82 260.409 261.121 260.409C260.64 260.409 260.21 260.513 259.83 260.722C259.455 260.931 259.159 261.236 258.942 261.636C258.724 262.037 258.616 262.523 258.616 263.094ZM274.591 261.381L273.236 261.764C273.151 261.538 273.025 261.319 272.859 261.106C272.697 260.888 272.475 260.71 272.194 260.569C271.913 260.428 271.553 260.358 271.114 260.358C270.513 260.358 270.012 260.496 269.612 260.773C269.215 261.046 269.017 261.393 269.017 261.815C269.017 262.19 269.154 262.487 269.426 262.704C269.699 262.921 270.125 263.102 270.705 263.247L272.162 263.605C273.04 263.818 273.694 264.144 274.124 264.583C274.555 265.018 274.77 265.578 274.77 266.264C274.77 266.827 274.608 267.33 274.284 267.773C273.965 268.216 273.517 268.565 272.942 268.821C272.367 269.077 271.698 269.205 270.935 269.205C269.933 269.205 269.105 268.987 268.448 268.553C267.792 268.118 267.377 267.483 267.202 266.648L268.634 266.29C268.77 266.818 269.028 267.214 269.407 267.479C269.791 267.743 270.291 267.875 270.909 267.875C271.612 267.875 272.171 267.726 272.584 267.428C273.002 267.125 273.21 266.763 273.21 266.341C273.21 266 273.091 265.714 272.852 265.484C272.614 265.25 272.247 265.075 271.753 264.96L270.117 264.577C269.218 264.364 268.557 264.033 268.135 263.586C267.718 263.134 267.509 262.57 267.509 261.892C267.509 261.338 267.664 260.848 267.975 260.422C268.291 259.996 268.719 259.661 269.26 259.418C269.806 259.175 270.423 259.054 271.114 259.054C272.085 259.054 272.848 259.267 273.402 259.693C273.96 260.119 274.357 260.682 274.591 261.381ZM277.041 272.682V259.182H278.498V260.741H278.677C278.788 260.571 278.941 260.354 279.137 260.089C279.338 259.821 279.623 259.582 279.994 259.374C280.369 259.161 280.876 259.054 281.515 259.054C282.342 259.054 283.071 259.261 283.701 259.674C284.332 260.087 284.824 260.673 285.178 261.432C285.532 262.19 285.708 263.085 285.708 264.116C285.708 265.156 285.532 266.058 285.178 266.82C284.824 267.579 284.334 268.167 283.708 268.585C283.081 268.998 282.359 269.205 281.541 269.205C280.91 269.205 280.405 269.1 280.026 268.891C279.647 268.678 279.355 268.437 279.15 268.169C278.946 267.896 278.788 267.67 278.677 267.491H278.549V272.682H277.041ZM278.524 264.091C278.524 264.832 278.632 265.487 278.85 266.053C279.067 266.616 279.385 267.057 279.802 267.376C280.22 267.692 280.731 267.849 281.336 267.849C281.967 267.849 282.493 267.683 282.915 267.351C283.341 267.014 283.661 266.562 283.874 265.996C284.091 265.425 284.2 264.79 284.2 264.091C284.2 263.401 284.093 262.778 283.88 262.224C283.672 261.666 283.354 261.225 282.928 260.901C282.506 260.573 281.975 260.409 281.336 260.409C280.723 260.409 280.207 260.565 279.789 260.876C279.372 261.183 279.056 261.613 278.843 262.167C278.63 262.717 278.524 263.358 278.524 264.091ZM288.01 269V259.182H289.518V269H288.01ZM288.777 257.545C288.483 257.545 288.229 257.445 288.016 257.245C287.807 257.045 287.703 256.804 287.703 256.523C287.703 256.241 287.807 256.001 288.016 255.8C288.229 255.6 288.483 255.5 288.777 255.5C289.071 255.5 289.322 255.6 289.531 255.8C289.744 256.001 289.85 256.241 289.85 256.523C289.85 256.804 289.744 257.045 289.531 257.245C289.322 257.445 289.071 257.545 288.777 257.545ZM292.281 269V259.182H293.738V260.665H293.841C294.02 260.179 294.344 259.785 294.812 259.482C295.281 259.18 295.809 259.028 296.398 259.028C296.508 259.028 296.647 259.031 296.813 259.035C296.979 259.039 297.105 259.045 297.19 259.054V260.588C297.139 260.575 297.022 260.556 296.839 260.531C296.66 260.501 296.47 260.486 296.27 260.486C295.792 260.486 295.366 260.586 294.991 260.786C294.621 260.982 294.327 261.255 294.109 261.604C293.896 261.95 293.79 262.344 293.79 262.787V269H292.281ZM302.796 269.205C301.85 269.205 301.034 268.996 300.348 268.578C299.666 268.156 299.14 267.568 298.769 266.814C298.403 266.055 298.219 265.173 298.219 264.168C298.219 263.162 298.403 262.276 298.769 261.509C299.14 260.737 299.655 260.136 300.316 259.706C300.981 259.271 301.756 259.054 302.643 259.054C303.154 259.054 303.659 259.139 304.157 259.31C304.656 259.48 305.11 259.757 305.519 260.141C305.928 260.52 306.254 261.023 306.497 261.649C306.74 262.276 306.861 263.047 306.861 263.963V264.602H299.293V263.298H305.327C305.327 262.744 305.216 262.25 304.995 261.815C304.778 261.381 304.466 261.038 304.062 260.786C303.661 260.535 303.188 260.409 302.643 260.409C302.042 260.409 301.522 260.558 301.083 260.857C300.648 261.151 300.314 261.534 300.079 262.007C299.845 262.48 299.728 262.987 299.728 263.528V264.398C299.728 265.139 299.856 265.768 300.111 266.283C300.371 266.795 300.731 267.185 301.192 267.453C301.652 267.717 302.187 267.849 302.796 267.849C303.192 267.849 303.55 267.794 303.87 267.683C304.194 267.568 304.473 267.398 304.707 267.172C304.942 266.942 305.123 266.656 305.251 266.315L306.708 266.724C306.555 267.219 306.297 267.653 305.934 268.028C305.572 268.399 305.125 268.689 304.592 268.898C304.059 269.102 303.461 269.205 302.796 269.205ZM312.863 269.205C312.045 269.205 311.323 268.998 310.697 268.585C310.07 268.167 309.58 267.579 309.226 266.82C308.873 266.058 308.696 265.156 308.696 264.116C308.696 263.085 308.873 262.19 309.226 261.432C309.58 260.673 310.072 260.087 310.703 259.674C311.334 259.261 312.062 259.054 312.889 259.054C313.528 259.054 314.033 259.161 314.404 259.374C314.779 259.582 315.064 259.821 315.26 260.089C315.461 260.354 315.616 260.571 315.727 260.741H315.855V255.909H317.363V269H315.906V267.491H315.727C315.616 267.67 315.459 267.896 315.254 268.169C315.05 268.437 314.758 268.678 314.378 268.891C313.999 269.1 313.494 269.205 312.863 269.205ZM313.068 267.849C313.673 267.849 314.184 267.692 314.602 267.376C315.02 267.057 315.337 266.616 315.555 266.053C315.772 265.487 315.881 264.832 315.881 264.091C315.881 263.358 315.774 262.717 315.561 262.167C315.348 261.613 315.032 261.183 314.615 260.876C314.197 260.565 313.682 260.409 313.068 260.409C312.429 260.409 311.896 260.573 311.47 260.901C311.048 261.225 310.731 261.666 310.518 262.224C310.309 262.778 310.204 263.401 310.204 264.091C310.204 264.79 310.311 265.425 310.524 265.996C310.741 266.562 311.061 267.014 311.483 267.351C311.909 267.683 312.437 267.849 313.068 267.849ZM325.603 269V255.909H327.111V260.741H327.239C327.35 260.571 327.503 260.354 327.699 260.089C327.9 259.821 328.185 259.582 328.556 259.374C328.931 259.161 329.438 259.054 330.077 259.054C330.904 259.054 331.633 259.261 332.263 259.674C332.894 260.087 333.386 260.673 333.74 261.432C334.094 262.19 334.27 263.085 334.27 264.116C334.27 265.156 334.094 266.058 333.74 266.82C333.386 267.579 332.896 268.167 332.27 268.585C331.643 268.998 330.921 269.205 330.103 269.205C329.472 269.205 328.967 269.1 328.588 268.891C328.209 268.678 327.917 268.437 327.712 268.169C327.508 267.896 327.35 267.67 327.239 267.491H327.06V269H325.603ZM327.086 264.091C327.086 264.832 327.194 265.487 327.412 266.053C327.629 266.616 327.947 267.057 328.364 267.376C328.782 267.692 329.293 267.849 329.898 267.849C330.529 267.849 331.055 267.683 331.477 267.351C331.903 267.014 332.223 266.562 332.436 265.996C332.653 265.425 332.762 264.79 332.762 264.091C332.762 263.401 332.655 262.778 332.442 262.224C332.233 261.666 331.916 261.225 331.49 260.901C331.068 260.573 330.537 260.409 329.898 260.409C329.285 260.409 328.769 260.565 328.351 260.876C327.934 261.183 327.618 261.613 327.405 262.167C327.192 262.717 327.086 263.358 327.086 264.091ZM337.198 272.682C336.942 272.682 336.714 272.661 336.514 272.618C336.314 272.58 336.175 272.541 336.099 272.503L336.482 271.173C336.849 271.267 337.172 271.301 337.454 271.276C337.735 271.25 337.984 271.124 338.202 270.898C338.423 270.677 338.626 270.317 338.809 269.818L339.09 269.051L335.459 259.182H337.096L339.806 267.006H339.908L342.618 259.182H344.255L340.087 270.432C339.9 270.939 339.667 271.359 339.39 271.691C339.113 272.028 338.792 272.277 338.425 272.439C338.063 272.601 337.654 272.682 337.198 272.682ZM355.578 259.182V260.46H350.49V259.182H355.578ZM351.973 256.83H353.482V266.188C353.482 266.614 353.544 266.933 353.667 267.146C353.795 267.355 353.957 267.496 354.153 267.568C354.353 267.636 354.564 267.67 354.786 267.67C354.952 267.67 355.088 267.662 355.195 267.645C355.301 267.624 355.387 267.607 355.45 267.594L355.757 268.949C355.655 268.987 355.512 269.026 355.329 269.064C355.146 269.107 354.914 269.128 354.632 269.128C354.206 269.128 353.789 269.036 353.379 268.853C352.975 268.67 352.638 268.391 352.369 268.016C352.105 267.641 351.973 267.168 351.973 266.597V256.83ZM359.567 263.094V269H358.058V255.909H359.567V260.716H359.695C359.925 260.209 360.27 259.806 360.73 259.508C361.195 259.205 361.813 259.054 362.584 259.054C363.253 259.054 363.839 259.188 364.342 259.457C364.845 259.721 365.235 260.128 365.512 260.678C365.793 261.223 365.933 261.918 365.933 262.761V269H364.425V262.864C364.425 262.084 364.222 261.481 363.818 261.055C363.417 260.624 362.861 260.409 362.149 260.409C361.655 260.409 361.212 260.513 360.82 260.722C360.432 260.931 360.125 261.236 359.899 261.636C359.678 262.037 359.567 262.523 359.567 263.094ZM372.81 269.205C371.864 269.205 371.048 268.996 370.362 268.578C369.68 268.156 369.153 267.568 368.783 266.814C368.416 266.055 368.233 265.173 368.233 264.168C368.233 263.162 368.416 262.276 368.783 261.509C369.153 260.737 369.669 260.136 370.33 259.706C370.994 259.271 371.77 259.054 372.656 259.054C373.168 259.054 373.673 259.139 374.171 259.31C374.67 259.48 375.124 259.757 375.533 260.141C375.942 260.52 376.268 261.023 376.511 261.649C376.754 262.276 376.875 263.047 376.875 263.963V264.602H369.307V263.298H375.341C375.341 262.744 375.23 262.25 375.009 261.815C374.791 261.381 374.48 261.038 374.075 260.786C373.675 260.535 373.202 260.409 372.656 260.409C372.055 260.409 371.536 260.558 371.097 260.857C370.662 261.151 370.327 261.534 370.093 262.007C369.859 262.48 369.741 262.987 369.741 263.528V264.398C369.741 265.139 369.869 265.768 370.125 266.283C370.385 266.795 370.745 267.185 371.205 267.453C371.665 267.717 372.2 267.849 372.81 267.849C373.206 267.849 373.564 267.794 373.884 267.683C374.207 267.568 374.487 267.398 374.721 267.172C374.955 266.942 375.136 266.656 375.264 266.315L376.722 266.724C376.568 267.219 376.31 267.653 375.948 268.028C375.586 268.399 375.138 268.689 374.606 268.898C374.073 269.102 373.474 269.205 372.81 269.205ZM386.124 261.381L384.769 261.764C384.684 261.538 384.558 261.319 384.392 261.106C384.23 260.888 384.009 260.71 383.727 260.569C383.446 260.428 383.086 260.358 382.647 260.358C382.046 260.358 381.545 260.496 381.145 260.773C380.749 261.046 380.55 261.393 380.55 261.815C380.55 262.19 380.687 262.487 380.96 262.704C381.232 262.921 381.658 263.102 382.238 263.247L383.695 263.605C384.573 263.818 385.227 264.144 385.658 264.583C386.088 265.018 386.303 265.578 386.303 266.264C386.303 266.827 386.141 267.33 385.817 267.773C385.498 268.216 385.05 268.565 384.475 268.821C383.9 269.077 383.231 269.205 382.468 269.205C381.467 269.205 380.638 268.987 379.982 268.553C379.325 268.118 378.91 267.483 378.735 266.648L380.167 266.29C380.303 266.818 380.561 267.214 380.94 267.479C381.324 267.743 381.825 267.875 382.442 267.875C383.146 267.875 383.704 267.726 384.117 267.428C384.535 267.125 384.744 266.763 384.744 266.341C384.744 266 384.624 265.714 384.386 265.484C384.147 265.25 383.781 265.075 383.286 264.96L381.65 264.577C380.751 264.364 380.09 264.033 379.668 263.586C379.251 263.134 379.042 262.57 379.042 261.892C379.042 261.338 379.197 260.848 379.509 260.422C379.824 259.996 380.252 259.661 380.793 259.418C381.339 259.175 381.957 259.054 382.647 259.054C383.619 259.054 384.381 259.267 384.935 259.693C385.494 260.119 385.89 260.682 386.124 261.381ZM392.691 269.205C391.744 269.205 390.928 268.996 390.242 268.578C389.561 268.156 389.034 267.568 388.664 266.814C388.297 266.055 388.114 265.173 388.114 264.168C388.114 263.162 388.297 262.276 388.664 261.509C389.034 260.737 389.55 260.136 390.21 259.706C390.875 259.271 391.651 259.054 392.537 259.054C393.048 259.054 393.553 259.139 394.052 259.31C394.551 259.48 395.004 259.757 395.414 260.141C395.823 260.52 396.149 261.023 396.392 261.649C396.634 262.276 396.756 263.047 396.756 263.963V264.602H389.188V263.298H395.222C395.222 262.744 395.111 262.25 394.889 261.815C394.672 261.381 394.361 261.038 393.956 260.786C393.556 260.535 393.083 260.409 392.537 260.409C391.936 260.409 391.416 260.558 390.977 260.857C390.543 261.151 390.208 261.534 389.974 262.007C389.74 262.48 389.622 262.987 389.622 263.528V264.398C389.622 265.139 389.75 265.768 390.006 266.283C390.266 266.795 390.626 267.185 391.086 267.453C391.546 267.717 392.081 267.849 392.691 267.849C393.087 267.849 393.445 267.794 393.764 267.683C394.088 267.568 394.367 267.398 394.602 267.172C394.836 266.942 395.017 266.656 395.145 266.315L396.602 266.724C396.449 267.219 396.191 267.653 395.829 268.028C395.467 268.399 395.019 268.689 394.487 268.898C393.954 269.102 393.355 269.205 392.691 269.205ZM411.068 261.381L409.713 261.764C409.627 261.538 409.502 261.319 409.335 261.106C409.173 260.888 408.952 260.71 408.671 260.569C408.389 260.428 408.029 260.358 407.59 260.358C406.99 260.358 406.489 260.496 406.088 260.773C405.692 261.046 405.494 261.393 405.494 261.815C405.494 262.19 405.63 262.487 405.903 262.704C406.176 262.921 406.602 263.102 407.181 263.247L408.639 263.605C409.517 263.818 410.171 264.144 410.601 264.583C411.031 265.018 411.247 265.578 411.247 266.264C411.247 266.827 411.085 267.33 410.761 267.773C410.441 268.216 409.994 268.565 409.419 268.821C408.843 269.077 408.174 269.205 407.411 269.205C406.41 269.205 405.581 268.987 404.925 268.553C404.269 268.118 403.853 267.483 403.678 266.648L405.11 266.29C405.247 266.818 405.504 267.214 405.884 267.479C406.267 267.743 406.768 267.875 407.386 267.875C408.089 267.875 408.647 267.726 409.061 267.428C409.478 267.125 409.687 266.763 409.687 266.341C409.687 266 409.568 265.714 409.329 265.484C409.09 265.25 408.724 265.075 408.23 264.96L406.593 264.577C405.694 264.364 405.034 264.033 404.612 263.586C404.194 263.134 403.985 262.57 403.985 261.892C403.985 261.338 404.141 260.848 404.452 260.422C404.767 259.996 405.195 259.661 405.737 259.418C406.282 259.175 406.9 259.054 407.59 259.054C408.562 259.054 409.325 259.267 409.879 259.693C410.437 260.119 410.833 260.682 411.068 261.381ZM417.787 259.182V260.46H412.699V259.182H417.787ZM414.182 256.83H415.691V266.188C415.691 266.614 415.752 266.933 415.876 267.146C416.004 267.355 416.166 267.496 416.362 267.568C416.562 267.636 416.773 267.67 416.995 267.67C417.161 267.67 417.297 267.662 417.404 267.645C417.51 267.624 417.596 267.607 417.659 267.594L417.966 268.949C417.864 268.987 417.721 269.026 417.538 269.064C417.355 269.107 417.123 269.128 416.841 269.128C416.415 269.128 415.998 269.036 415.588 268.853C415.184 268.67 414.847 268.391 414.578 268.016C414.314 267.641 414.182 267.168 414.182 266.597V256.83ZM423.94 269.205C423.053 269.205 422.276 268.994 421.607 268.572C420.942 268.15 420.422 267.56 420.047 266.801C419.676 266.043 419.491 265.156 419.491 264.142C419.491 263.119 419.676 262.227 420.047 261.464C420.422 260.701 420.942 260.109 421.607 259.687C422.276 259.265 423.053 259.054 423.94 259.054C424.826 259.054 425.602 259.265 426.266 259.687C426.935 260.109 427.455 260.701 427.826 261.464C428.201 262.227 428.388 263.119 428.388 264.142C428.388 265.156 428.201 266.043 427.826 266.801C427.455 267.56 426.935 268.15 426.266 268.572C425.602 268.994 424.826 269.205 423.94 269.205ZM423.94 267.849C424.613 267.849 425.167 267.677 425.602 267.332C426.036 266.987 426.358 266.533 426.567 265.97C426.776 265.408 426.88 264.798 426.88 264.142C426.88 263.486 426.776 262.874 426.567 262.308C426.358 261.741 426.036 261.283 425.602 260.933C425.167 260.584 424.613 260.409 423.94 260.409C423.266 260.409 422.712 260.584 422.278 260.933C421.843 261.283 421.521 261.741 421.312 262.308C421.104 262.874 420.999 263.486 420.999 264.142C420.999 264.798 421.104 265.408 421.312 265.97C421.521 266.533 421.843 266.987 422.278 267.332C422.712 267.677 423.266 267.849 423.94 267.849ZM430.691 269V259.182H432.149V260.665H432.251C432.43 260.179 432.754 259.785 433.222 259.482C433.691 259.18 434.22 259.028 434.808 259.028C434.919 259.028 435.057 259.031 435.223 259.035C435.389 259.039 435.515 259.045 435.6 259.054V260.588C435.549 260.575 435.432 260.556 435.249 260.531C435.07 260.501 434.88 260.486 434.68 260.486C434.203 260.486 433.776 260.586 433.401 260.786C433.031 260.982 432.737 261.255 432.519 261.604C432.306 261.95 432.2 262.344 432.2 262.787V269H430.691ZM437.388 269V259.182H438.897V269H437.388ZM438.156 257.545C437.862 257.545 437.608 257.445 437.395 257.245C437.186 257.045 437.082 256.804 437.082 256.523C437.082 256.241 437.186 256.001 437.395 255.8C437.608 255.6 437.862 255.5 438.156 255.5C438.45 255.5 438.701 255.6 438.91 255.8C439.123 256.001 439.229 256.241 439.229 256.523C439.229 256.804 439.123 257.045 438.91 257.245C438.701 257.445 438.45 257.545 438.156 257.545ZM445.776 269.205C444.83 269.205 444.014 268.996 443.328 268.578C442.646 268.156 442.12 267.568 441.749 266.814C441.383 266.055 441.2 265.173 441.2 264.168C441.2 263.162 441.383 262.276 441.749 261.509C442.12 260.737 442.636 260.136 443.296 259.706C443.961 259.271 444.737 259.054 445.623 259.054C446.134 259.054 446.639 259.139 447.138 259.31C447.637 259.48 448.09 259.757 448.499 260.141C448.909 260.52 449.235 261.023 449.477 261.649C449.72 262.276 449.842 263.047 449.842 263.963V264.602H442.274V263.298H448.308C448.308 262.744 448.197 262.25 447.975 261.815C447.758 261.381 447.447 261.038 447.042 260.786C446.642 260.535 446.169 260.409 445.623 260.409C445.022 260.409 444.502 260.558 444.063 260.857C443.629 261.151 443.294 261.534 443.06 262.007C442.825 262.48 442.708 262.987 442.708 263.528V264.398C442.708 265.139 442.836 265.768 443.092 266.283C443.352 266.795 443.712 267.185 444.172 267.453C444.632 267.717 445.167 267.849 445.776 267.849C446.173 267.849 446.531 267.794 446.85 267.683C447.174 267.568 447.453 267.398 447.688 267.172C447.922 266.942 448.103 266.656 448.231 266.315L449.688 266.724C449.535 267.219 449.277 267.653 448.915 268.028C448.553 268.399 448.105 268.689 447.573 268.898C447.04 269.102 446.441 269.205 445.776 269.205ZM459.091 261.381L457.736 261.764C457.651 261.538 457.525 261.319 457.359 261.106C457.197 260.888 456.975 260.71 456.694 260.569C456.413 260.428 456.053 260.358 455.614 260.358C455.013 260.358 454.512 260.496 454.112 260.773C453.715 261.046 453.517 261.393 453.517 261.815C453.517 262.19 453.654 262.487 453.926 262.704C454.199 262.921 454.625 263.102 455.205 263.247L456.662 263.605C457.54 263.818 458.194 264.144 458.624 264.583C459.055 265.018 459.27 265.578 459.27 266.264C459.27 266.827 459.108 267.33 458.784 267.773C458.465 268.216 458.017 268.565 457.442 268.821C456.867 269.077 456.198 269.205 455.435 269.205C454.433 269.205 453.605 268.987 452.948 268.553C452.292 268.118 451.877 267.483 451.702 266.648L453.134 266.29C453.27 266.818 453.528 267.214 453.907 267.479C454.291 267.743 454.791 267.875 455.409 267.875C456.112 267.875 456.671 267.726 457.084 267.428C457.502 267.125 457.71 266.763 457.71 266.341C457.71 266 457.591 265.714 457.352 265.484C457.114 265.25 456.747 265.075 456.253 264.96L454.617 264.577C453.718 264.364 453.057 264.033 452.635 263.586C452.218 263.134 452.009 262.57 452.009 261.892C452.009 261.338 452.164 260.848 452.475 260.422C452.791 259.996 453.219 259.661 453.76 259.418C454.306 259.175 454.923 259.054 455.614 259.054C456.585 259.054 457.348 259.267 457.902 259.693C458.46 260.119 458.857 260.682 459.091 261.381ZM462.64 269.102C462.325 269.102 462.054 268.989 461.828 268.763C461.603 268.538 461.49 268.267 461.49 267.952C461.49 267.636 461.603 267.366 461.828 267.14C462.054 266.914 462.325 266.801 462.64 266.801C462.956 266.801 463.226 266.914 463.452 267.14C463.678 267.366 463.791 267.636 463.791 267.952C463.791 268.161 463.738 268.352 463.631 268.527C463.529 268.702 463.39 268.842 463.216 268.949C463.045 269.051 462.853 269.102 462.64 269.102Z" fill="#111827"/>
</g>
<defs>
<clipPath id="clip0_5_406">
<rect width="142" height="116" fill="white" transform="translate(112 64)"/>
</clipPath>
<clipPath id="clip1_5_406">
<rect width="488" height="156" fill="white" transform="translate(216 120)"/>
</clipPath>
</defs>
</svg>
